<?xml version="1.0" encoding="UTF-8" standalone="no"?>
<!DOCTYPE svg PUBLIC "-//W3C//DTD SVG 1.1//EN" "http://www.w3.org/Graphics/SVG/1.1/DTD/svg11.dtd">
<svg version="1.1" xmlns="http://www.w3.org/2000/svg" xmlns:xlink="http://www.w3.org/1999/xlink" preserveAspectRatio="xMidYMid meet" viewBox="-3 -1.0000000000000284 647.47 647.0000000000001" width="16.01" height="16"><defs><path d="M428.82 404.4C422.64 398.45 419.2 395.14 418.52 394.48C454.57 352.57 476.28 298.15 476.28 238.97C476.28 106.98 369.22 0 237.14 0C105.06 0 -2 106.98 -2 238.97C-2 370.95 105.06 477.93 237.14 477.93C296.37 477.93 350.82 456.24 392.76 420.21C393.43 420.9 396.74 424.33 402.7 430.5L402.7 459.55L586.65 643L641.47 588.22L457.88 404.4L428.82 404.4ZM71.58 238.97C71.58 147.42 145.53 73.53 237.14 73.53C328.75 73.53 402.7 147.42 402.7 238.97C402.7 330.51 328.75 404.4 237.14 404.4C145.53 404.4 71.58 330.51 71.58 238.97Z" id="d58SYFZEH1"></path></defs><g><g><use xlink:href="#d58SYFZEH1" opacity="1" fill="#9aa0a6" fill-opacity="1"></use><g><use xlink:href="#d58SYFZEH1" opacity="1" fill-opacity="0" stroke="#000000" stroke-width="1" stroke-opacity="0"></use></g></g></g></svg>